<svg width="29" height="44" viewBox="0 0 29 44" fill="none" xmlns="http://www.w3.org/2000/svg">
<path d="M17.6479 43.6324H8.98124C8.40661 43.6324 7.85551 43.4041 7.44918 42.9978C7.04285 42.5915 6.81457 42.0404 6.81457 41.4657V28.0324H2.48124C1.90661 28.0324 1.35551 27.8041 0.949178 27.3978C0.542849 26.9915 0.314575 26.4404 0.314575 25.8657V18.0657C0.314575 17.4911 0.542849 16.94 0.949178 16.5337C1.35551 16.1273 1.90661 15.8991 2.48124 15.8991H6.81457V12.2157C6.96645 8.91449 8.41926 5.80768 10.8553 3.5746C13.2914 1.34151 16.5126 0.163833 19.8146 0.299055H26.3146C26.8892 0.299055 27.4403 0.527328 27.8466 0.933657C28.253 1.33999 28.4812 1.89109 28.4812 2.46572V10.2657C28.4812 10.8404 28.253 11.3915 27.8466 11.7978C27.4403 12.2041 26.8892 12.4324 26.3146 12.4324H19.8146V15.8991H26.3146C26.6491 15.8965 26.9797 15.9715 27.2804 16.1181C27.5811 16.2647 27.8438 16.4789 28.0479 16.7441C28.2497 17.0131 28.3861 17.3255 28.4463 17.6565C28.5065 17.9874 28.4888 18.3278 28.3946 18.6507L26.2279 26.4507C26.0968 26.9194 25.8118 27.3303 25.4188 27.6172C25.0257 27.9041 24.5475 28.0504 24.0612 28.0324H19.8146V41.4657C19.8146 42.0404 19.5863 42.5915 19.18 42.9978C18.7736 43.4041 18.2225 43.6324 17.6479 43.6324ZM11.1479 39.2991H15.4812V25.8657C15.4812 25.2911 15.7095 24.74 16.1158 24.3337C16.5222 23.9273 17.0733 23.6991 17.6479 23.6991H22.5012L23.4546 20.2324H17.6479C17.0733 20.2324 16.5222 20.0041 16.1158 19.5978C15.7095 19.1915 15.4812 18.6404 15.4812 18.0657V12.2157C15.5369 11.1044 16.0179 10.0571 16.8246 9.29072C17.6313 8.52435 18.7019 8.09766 19.8146 8.09905H24.1479V4.63239H19.8146C17.6627 4.50128 15.5458 5.22396 13.9234 6.64363C12.3009 8.0633 11.3036 10.0655 11.1479 12.2157V18.0657C11.1479 18.6404 10.9196 19.1915 10.5133 19.5978C10.107 20.0041 9.55588 20.2324 8.98124 20.2324H4.64791V23.6991H8.98124C9.55588 23.6991 10.107 23.9273 10.5133 24.3337C10.9196 24.74 11.1479 25.2911 11.1479 25.8657V39.2991Z" fill="#231F20"/>
</svg>
