<svg width="46" height="46" viewBox="0 0 46 46" fill="none" xmlns="http://www.w3.org/2000/svg">
<path d="M22.9672 11.7161C16.7544 11.7161 11.7172 16.7533 11.7172 22.9661C11.7172 29.1789 16.7544 34.2161 22.9672 34.2161C29.18 34.2161 34.2172 29.1789 34.2172 22.9661C34.2172 16.7533 29.18 11.7161 22.9672 11.7161ZM22.9672 28.5911C19.865 28.5911 17.3422 26.0683 17.3422 22.9661C17.3422 19.8639 19.865 17.3411 22.9672 17.3411C26.0694 17.3411 28.5922 19.8639 28.5922 22.9661C28.5922 26.0683 26.0694 28.5911 22.9672 28.5911ZM31.4047 0.466064H14.5297C6.75873 0.466064 0.467163 6.75763 0.467163 14.5286V31.4036C0.467163 39.1717 6.75873 45.4661 14.5297 45.4661H31.4047C39.1728 45.4661 45.4672 39.1717 45.4672 31.4036V14.5286C45.4672 6.75763 39.1728 0.466064 31.4047 0.466064ZM39.8422 31.4036C39.8422 36.0526 36.0537 39.8411 31.4047 39.8411H14.5297C9.8806 39.8411 6.09216 36.0526 6.09216 31.4036V14.5286C6.09216 9.8795 9.8806 6.09106 14.5297 6.09106H31.4047C36.0537 6.09106 39.8422 9.8795 39.8422 14.5286V31.4036ZM34.2172 8.90356C32.6618 8.90356 31.4047 10.1608 31.4047 11.7161C31.4047 13.2714 32.6618 14.5286 34.2172 14.5286C35.7725 14.5286 37.0297 13.2714 37.0297 11.7161C37.0297 10.1608 35.7725 8.90356 34.2172 8.90356Z" fill="black"/>
</svg>
