<svg width="41" height="41" viewBox="0 0 41 41" fill="none" xmlns="http://www.w3.org/2000/svg">
<path d="M0.945312 0.524289V40.4631H40.8842V28.5813C40.9657 28.2198 40.9657 27.8446 40.8842 27.483V0.474365H0.945312V0.524289ZM5.93767 5.51664H35.8918V25.4861H28.4033C28.2538 25.4726 28.1034 25.4726 27.954 25.4861C27.2919 25.5457 26.6807 25.8658 26.2547 26.376C25.8287 26.8863 25.6229 27.5449 25.6824 28.2069C25.742 28.8689 26.0621 29.4802 26.5724 29.9062C27.0827 30.3322 27.7412 30.538 28.4033 30.4784H35.8918V35.4708H5.93767V5.51664ZM18.4186 10.509C14.2749 10.509 10.93 13.8539 10.93 17.9975C10.93 22.9899 18.4186 30.4784 18.4186 30.4784C18.4186 30.4784 25.9071 22.9899 25.9071 17.9975C25.9071 13.8539 22.5622 10.509 18.4186 10.509ZM18.4186 15.5014C19.8164 15.5014 20.9147 16.5997 20.9147 17.9975C20.9147 19.3954 19.8164 20.4937 18.4186 20.4937C17.0207 20.4937 15.9224 19.3954 15.9224 17.9975C15.9224 16.5997 17.0207 15.5014 18.4186 15.5014Z" fill="black"/>
</svg>
