<svg width="30" height="48" viewBox="0 0 30 48" fill="none" xmlns="http://www.w3.org/2000/svg">
<path d="M1.41742 0.966064C0.774618 0.966064 0.307129 1.43355 0.307129 2.07635V46.6631C0.307129 47.3059 0.774618 47.7734 1.41742 47.7734H28.4733C29.1161 47.7734 29.5836 47.3059 29.5836 46.6631V2.07635C29.5836 1.43355 29.1161 0.966064 28.4733 0.966064L1.41742 0.966064ZM6.15074 6.80968H23.6816V36.0277H6.15074V6.80968ZM14.9162 38.9495C16.5524 38.9495 17.838 40.2351 17.838 41.8714C17.838 43.5076 16.5524 44.7932 14.9162 44.7932C13.2799 44.7932 11.9944 43.5076 11.9944 41.8714C11.9944 40.2351 13.2799 38.9495 14.9162 38.9495Z" fill="black"/>
</svg>
